<svg viewBox="0 0 216 44" fill="none" xmlns="http://www.w3.org/2000/svg">
<g clip-path="url(#clip0_1841_2788)">
<path d="M32.5745 41.0563C22.2031 47.123 8.89369 43.5096 2.9056 33.002C-3.08248 22.4944 0.48385 9.0104 10.8553 2.94374C21.2268 -3.12293 34.5364 0.490199 40.5245 10.9978C46.5126 21.5054 42.9463 34.9896 32.5745 41.0563ZM11.7581 4.52804C2.24903 10.0903 -1.02079 22.4532 4.46939 32.0874C9.95957 41.7215 22.1624 45.0342 31.6717 39.472C41.1811 33.9098 44.4509 21.5468 38.9607 11.9127C33.4705 2.27855 21.2674 -1.03419 11.7581 4.52804Z" fill="#2F1865"></path>
<path d="M42.5721 3.49122C41.8272 2.89915 40.7491 3.03034 40.1652 3.78554C35.5197 9.78357 34.1148 16.1876 33.507 20.6346C33.1349 17.4332 32.6675 14.5552 30.232 14.5177C27.2907 14.4723 26.7378 18.9732 25.9017 25.7866C25.8022 26.598 25.6862 27.5324 25.5599 28.4666C25.3723 26.1878 25.0888 23.1063 24.7123 20.0354C23.3302 8.76072 21.9279 6.58381 19.8232 6.51149C17.037 6.4154 16.7751 10.2669 16.2048 18.7074C16.0383 21.1738 15.7942 24.7915 15.4299 27.1275C15.1777 26.3663 14.9354 25.5327 14.7497 24.8955C13.7049 21.3056 12.8026 18.2053 10.4186 17.959C9.82355 17.8978 9.25062 18.0831 8.80274 18.4835C7.8059 19.3755 7.77229 20.9152 7.7108 23.7103C7.60971 28.3125 7.44062 36.0149 2.47361 40.8195C1.7889 41.4821 1.76389 42.5815 2.41759 43.2752C3.0713 43.9689 4.15438 43.9924 4.84143 43.3319C10.4903 37.8674 10.9843 29.9129 11.1169 24.712C11.243 25.1293 11.3595 25.53 11.4606 25.8777C12.5105 29.4847 13.3396 32.3337 15.6858 32.3696C18.5958 32.4142 18.9944 28.2858 19.6252 18.9441C19.6726 18.2417 19.7253 17.4644 19.7836 16.6659C19.9566 18.5706 20.1773 20.7615 20.4451 22.9461C21.8276 34.2207 23.2298 36.3976 25.3348 36.4702C25.7965 36.4861 26.1925 36.3916 26.5356 36.191C28.1992 35.218 28.6252 31.7464 29.3042 26.215C29.4959 24.6508 29.7586 22.5111 30.0673 20.752C30.1051 21.0646 30.1387 21.362 30.1686 21.6242C30.5746 25.1961 30.9576 28.5698 33.574 28.8399C36.0163 29.093 36.3026 26.427 36.6072 23.6055C37.0587 19.4325 37.8138 12.4485 42.8626 5.92918C43.4473 5.17478 43.317 4.08276 42.5721 3.49069V3.49122Z" fill="url(#paint0_linear_1841_278800)"></path>
<path fill-rule="evenodd" clip-rule="evenodd" d="M110.694 29.3149C109.631 28.2028 109.101 26.5103 109.101 24.2381V16.6045H105.683V13.1593H109.101V7.90112H112.86V13.1593H119.428V16.6045H112.86V24.1652C112.86 25.2778 113.11 26.0966 113.611 26.6219C114.112 27.1477 114.769 27.4112 115.58 27.4112C116.129 27.4112 116.704 27.3021 117.307 27.0844C117.909 26.8671 118.485 26.5834 119.034 26.2323L120.52 29.2605C118.837 30.4087 117.084 30.9828 115.258 30.9828C113.277 30.9828 111.756 30.4267 110.694 29.3149H110.694ZM88.0451 29.8042C86.7382 29.0187 85.7062 27.9304 84.9488 26.5403C84.1906 25.1508 83.8126 23.585 83.8126 21.8439C83.8126 20.1028 84.1909 18.5383 84.9488 17.148C85.7065 15.758 86.7382 14.6702 88.0451 13.8841C89.3515 13.0986 90.7978 12.7055 92.3847 12.7055C93.5538 12.7055 94.5889 12.9296 95.4901 13.3762C96.3906 13.8239 97.1514 14.4524 97.7722 15.2623V13.159H101.513V30.5291H97.7722V28.444C97.1514 29.2417 96.394 29.865 95.499 30.3113C94.6043 30.7585 93.566 30.9826 92.3847 30.9826C90.7978 30.9826 89.3515 30.5893 88.0451 29.8042ZM95.5261 26.6858C96.3072 26.2022 96.9161 25.5373 97.3517 24.691C97.7868 23.8453 98.0049 22.8961 98.0049 21.8442C98.0049 20.7923 97.7868 19.8441 97.3517 18.9979C96.9161 18.1516 96.3072 17.4867 95.5261 17.0031C94.7439 16.52 93.8461 16.278 92.8323 16.278C91.7941 16.278 90.8816 16.5259 90.0938 17.0216C89.3064 17.5173 88.7038 18.188 88.2866 19.0338C87.8687 19.88 87.66 20.8171 87.66 21.8442C87.66 22.8713 87.8687 23.8089 88.2866 24.6551C88.704 25.5014 89.3067 26.1721 90.0938 26.6673C90.8816 27.163 91.7941 27.4109 92.8323 27.4109C93.8461 27.4109 94.7439 27.1694 95.5261 26.6858ZM124.251 26.5403C125.008 27.9304 126.041 29.0187 127.347 29.8042C128.653 30.5893 130.1 30.9826 131.687 30.9826C132.869 30.9826 133.906 30.7585 134.801 30.3113C135.697 29.865 136.454 29.2417 137.074 28.444V30.5291H140.815V13.159H137.074V15.2623C136.454 14.4524 135.693 13.8239 134.792 13.3762C133.891 12.9296 132.856 12.7055 131.687 12.7055C130.1 12.7055 128.653 13.0986 127.347 13.8841C126.041 14.6702 125.008 15.758 124.251 17.148C123.493 18.5383 123.115 20.1028 123.115 21.8439C123.115 23.585 123.493 25.1508 124.251 26.5403ZM136.654 24.691C136.218 25.5373 135.609 26.2022 134.828 26.6858C134.046 27.1694 133.149 27.4109 132.134 27.4109C131.096 27.4109 130.184 27.163 129.396 26.6673C128.609 26.1721 128.006 25.5014 127.589 24.6551C127.171 23.8089 126.962 22.8713 126.962 21.8442C126.962 20.8171 127.171 19.88 127.589 19.0338C128.006 18.188 128.608 17.5173 129.396 17.0216C130.184 16.5259 131.096 16.278 132.134 16.278C133.149 16.278 134.046 16.52 134.828 17.0031C135.609 17.4867 136.218 18.1516 136.654 18.9979C137.089 19.8441 137.307 20.7923 137.307 21.8442C137.307 22.8961 137.089 23.8453 136.654 24.691ZM154.81 30.5291H150.407L144.734 13.159H148.724L152.752 26.359L156.976 13.159H161.217L165.494 26.4313L169.539 13.159H173.441L167.767 30.5291H163.293L159.051 17.4384L154.81 30.5291ZM177.262 26.5403C178.019 27.9304 179.052 29.0187 180.358 29.8042C181.664 30.5893 183.111 30.9826 184.698 30.9826C185.879 30.9826 186.917 30.7585 187.812 30.3113C188.707 29.865 189.465 29.2417 190.085 28.444V30.5291H193.826V13.159H190.085V15.2623C189.465 14.4524 188.704 13.8239 187.803 13.3762C186.902 12.9296 185.867 12.7055 184.698 12.7055C183.111 12.7055 181.664 13.0986 180.358 13.8841C179.052 14.6702 178.019 15.7577 177.262 17.148C176.504 18.5383 176.125 20.1028 176.125 21.8439C176.125 23.585 176.504 25.1508 177.262 26.5403ZM189.665 24.691C189.229 25.5373 188.62 26.2022 187.839 26.6858C187.057 27.1694 186.159 27.4109 185.145 27.4109C184.107 27.4109 183.194 27.163 182.407 26.6673C181.619 26.1721 181.017 25.5014 180.599 24.6551C180.182 23.8089 179.973 22.8713 179.973 21.8442C179.973 20.8171 180.182 19.88 180.599 19.0338C181.017 18.188 181.619 17.5173 182.407 17.0216C183.194 16.5259 184.107 16.278 185.145 16.278C186.159 16.278 187.057 16.52 187.839 17.0031C188.62 17.4867 189.229 18.1516 189.665 18.9979C190.1 19.8441 190.318 20.7923 190.318 21.8442C190.318 22.8961 190.1 23.8453 189.665 24.691ZM200.053 30.5291V13.159H203.776V15.2802C204.408 14.3379 205.187 13.6729 206.112 13.286C207.036 12.899 208.011 12.7055 209.038 12.7055C210.386 12.7055 211.588 12.9988 212.644 13.585C213.7 14.1713 214.524 14.9872 215.114 16.0328C215.705 17.0783 216 18.2717 216 19.614V30.5291H212.241V20.8649C212.241 19.8982 212.083 19.0731 211.767 18.3897C211.451 17.7073 210.994 17.1902 210.398 16.8394C209.801 16.4889 209.086 16.3142 208.25 16.3142C207.427 16.3142 206.679 16.4923 206.004 16.8489C205.33 17.2053 204.796 17.7311 204.403 18.4261C204.009 19.1211 203.812 19.9463 203.812 20.9013V30.5288L200.053 30.5291ZM75.3668 13.1595H70.9638L66.7224 26.2505L62.4808 13.1595H58.0065L52.3331 30.5299H56.2345L60.2795 17.2576L64.5568 30.5299H68.7985L73.0221 17.3299L77.0491 30.5299H81.0404L75.3668 13.1595Z" fill="#2F1865"></path>
</g>
<defs>
<linearGradient id="paint0_linear_1841_278800" x1="-1.63735" y1="28.7653" x2="46.2617" y2="16.0969" gradientUnits="userSpaceOnUse">
<stop offset="0.103" stop-color="#2F1865"></stop>
<stop offset="0.186" stop-color="#341B7C"></stop>
<stop offset="0.36" stop-color="#4126B9"></stop>
<stop offset="0.541" stop-color="#5032FF"></stop>
<stop offset="0.857" stop-color="#C70FFF"></stop>
<stop offset="0.999" stop-color="#FF00FF"></stop>
</linearGradient>
<clipPath id="clip0_1841_2788">
<rect width="216" height="44" fill="white"></rect>
</clipPath>
</defs>
</svg>
<g clip-path="url(#clip0_1841_2788)">
<path d="M32.5745 41.0563C22.2031 47.123 8.89369 43.5096 2.9056 33.002C-3.08248 22.4944 0.48385 9.0104 10.8553 2.94374C21.2268 -3.12293 34.5364 0.490199 40.5245 10.9978C46.5126 21.5054 42.9463 34.9896 32.5745 41.0563ZM11.7581 4.52804C2.24903 10.0903 -1.02079 22.4532 4.46939 32.0874C9.95957 41.7215 22.1624 45.0342 31.6717 39.472C41.1811 33.9098 44.4509 21.5468 38.9607 11.9127C33.4705 2.27855 21.2674 -1.03419 11.7581 4.52804Z" fill="#2F1865"></path>
<path d="M42.5721 3.49122C41.8272 2.89915 40.7491 3.03034 40.1652 3.78554C35.5197 9.78357 34.1148 16.1876 33.507 20.6346C33.1349 17.4332 32.6675 14.5552 30.232 14.5177C27.2907 14.4723 26.7378 18.9732 25.9017 25.7866C25.8022 26.598 25.6862 27.5324 25.5599 28.4666C25.3723 26.1878 25.0888 23.1063 24.7123 20.0354C23.3302 8.76072 21.9279 6.58381 19.8232 6.51149C17.037 6.4154 16.7751 10.2669 16.2048 18.7074C16.0383 21.1738 15.7942 24.7915 15.4299 27.1275C15.1777 26.3663 14.9354 25.5327 14.7497 24.8955C13.7049 21.3056 12.8026 18.2053 10.4186 17.959C9.82355 17.8978 9.25062 18.0831 8.80274 18.4835C7.8059 19.3755 7.77229 20.9152 7.7108 23.7103C7.60971 28.3125 7.44062 36.0149 2.47361 40.8195C1.7889 41.4821 1.76389 42.5815 2.41759 43.2752C3.0713 43.9689 4.15438 43.9924 4.84143 43.3319C10.4903 37.8674 10.9843 29.9129 11.1169 24.712C11.243 25.1293 11.3595 25.53 11.4606 25.8777C12.5105 29.4847 13.3396 32.3337 15.6858 32.3696C18.5958 32.4142 18.9944 28.2858 19.6252 18.9441C19.6726 18.2417 19.7253 17.4644 19.7836 16.6659C19.9566 18.5706 20.1773 20.7615 20.4451 22.9461C21.8276 34.2207 23.2298 36.3976 25.3348 36.4702C25.7965 36.4861 26.1925 36.3916 26.5356 36.191C28.1992 35.218 28.6252 31.7464 29.3042 26.215C29.4959 24.6508 29.7586 22.5111 30.0673 20.752C30.1051 21.0646 30.1387 21.362 30.1686 21.6242C30.5746 25.1961 30.9576 28.5698 33.574 28.8399C36.0163 29.093 36.3026 26.427 36.6072 23.6055C37.0587 19.4325 37.8138 12.4485 42.8626 5.92918C43.4473 5.17478 43.317 4.08276 42.5721 3.49069V3.49122Z" fill="url(#paint0_linear_1841_278800)"></path>
<path fill-rule="evenodd" clip-rule="evenodd" d="M110.694 29.3149C109.631 28.2028 109.101 26.5103 109.101 24.2381V16.6045H105.683V13.1593H109.101V7.90112H112.86V13.1593H119.428V16.6045H112.86V24.1652C112.86 25.2778 113.11 26.0966 113.611 26.6219C114.112 27.1477 114.769 27.4112 115.58 27.4112C116.129 27.4112 116.704 27.3021 117.307 27.0844C117.909 26.8671 118.485 26.5834 119.034 26.2323L120.52 29.2605C118.837 30.4087 117.084 30.9828 115.258 30.9828C113.277 30.9828 111.756 30.4267 110.694 29.3149H110.694ZM88.0451 29.8042C86.7382 29.0187 85.7062 27.9304 84.9488 26.5403C84.1906 25.1508 83.8126 23.585 83.8126 21.8439C83.8126 20.1028 84.1909 18.5383 84.9488 17.148C85.7065 15.758 86.7382 14.6702 88.0451 13.8841C89.3515 13.0986 90.7978 12.7055 92.3847 12.7055C93.5538 12.7055 94.5889 12.9296 95.4901 13.3762C96.3906 13.8239 97.1514 14.4524 97.7722 15.2623V13.159H101.513V30.5291H97.7722V28.444C97.1514 29.2417 96.394 29.865 95.499 30.3113C94.6043 30.7585 93.566 30.9826 92.3847 30.9826C90.7978 30.9826 89.3515 30.5893 88.0451 29.8042ZM95.5261 26.6858C96.3072 26.2022 96.9161 25.5373 97.3517 24.691C97.7868 23.8453 98.0049 22.8961 98.0049 21.8442C98.0049 20.7923 97.7868 19.8441 97.3517 18.9979C96.9161 18.1516 96.3072 17.4867 95.5261 17.0031C94.7439 16.52 93.8461 16.278 92.8323 16.278C91.7941 16.278 90.8816 16.5259 90.0938 17.0216C89.3064 17.5173 88.7038 18.188 88.2866 19.0338C87.8687 19.88 87.66 20.8171 87.66 21.8442C87.66 22.8713 87.8687 23.8089 88.2866 24.6551C88.704 25.5014 89.3067 26.1721 90.0938 26.6673C90.8816 27.163 91.7941 27.4109 92.8323 27.4109C93.8461 27.4109 94.7439 27.1694 95.5261 26.6858ZM124.251 26.5403C125.008 27.9304 126.041 29.0187 127.347 29.8042C128.653 30.5893 130.1 30.9826 131.687 30.9826C132.869 30.9826 133.906 30.7585 134.801 30.3113C135.697 29.865 136.454 29.2417 137.074 28.444V30.5291H140.815V13.159H137.074V15.2623C136.454 14.4524 135.693 13.8239 134.792 13.3762C133.891 12.9296 132.856 12.7055 131.687 12.7055C130.1 12.7055 128.653 13.0986 127.347 13.8841C126.041 14.6702 125.008 15.758 124.251 17.148C123.493 18.5383 123.115 20.1028 123.115 21.8439C123.115 23.585 123.493 25.1508 124.251 26.5403ZM136.654 24.691C136.218 25.5373 135.609 26.2022 134.828 26.6858C134.046 27.1694 133.149 27.4109 132.134 27.4109C131.096 27.4109 130.184 27.163 129.396 26.6673C128.609 26.1721 128.006 25.5014 127.589 24.6551C127.171 23.8089 126.962 22.8713 126.962 21.8442C126.962 20.8171 127.171 19.88 127.589 19.0338C128.006 18.188 128.608 17.5173 129.396 17.0216C130.184 16.5259 131.096 16.278 132.134 16.278C133.149 16.278 134.046 16.52 134.828 17.0031C135.609 17.4867 136.218 18.1516 136.654 18.9979C137.089 19.8441 137.307 20.7923 137.307 21.8442C137.307 22.8961 137.089 23.8453 136.654 24.691ZM154.81 30.5291H150.407L144.734 13.159H148.724L152.752 26.359L156.976 13.159H161.217L165.494 26.4313L169.539 13.159H173.441L167.767 30.5291H163.293L159.051 17.4384L154.81 30.5291ZM177.262 26.5403C178.019 27.9304 179.052 29.0187 180.358 29.8042C181.664 30.5893 183.111 30.9826 184.698 30.9826C185.879 30.9826 186.917 30.7585 187.812 30.3113C188.707 29.865 189.465 29.2417 190.085 28.444V30.5291H193.826V13.159H190.085V15.2623C189.465 14.4524 188.704 13.8239 187.803 13.3762C186.902 12.9296 185.867 12.7055 184.698 12.7055C183.111 12.7055 181.664 13.0986 180.358 13.8841C179.052 14.6702 178.019 15.7577 177.262 17.148C176.504 18.5383 176.125 20.1028 176.125 21.8439C176.125 23.585 176.504 25.1508 177.262 26.5403ZM189.665 24.691C189.229 25.5373 188.62 26.2022 187.839 26.6858C187.057 27.1694 186.159 27.4109 185.145 27.4109C184.107 27.4109 183.194 27.163 182.407 26.6673C181.619 26.1721 181.017 25.5014 180.599 24.6551C180.182 23.8089 179.973 22.8713 179.973 21.8442C179.973 20.8171 180.182 19.88 180.599 19.0338C181.017 18.188 181.619 17.5173 182.407 17.0216C183.194 16.5259 184.107 16.278 185.145 16.278C186.159 16.278 187.057 16.52 187.839 17.0031C188.62 17.4867 189.229 18.1516 189.665 18.9979C190.1 19.8441 190.318 20.7923 190.318 21.8442C190.318 22.8961 190.1 23.8453 189.665 24.691ZM200.053 30.5291V13.159H203.776V15.2802C204.408 14.3379 205.187 13.6729 206.112 13.286C207.036 12.899 208.011 12.7055 209.038 12.7055C210.386 12.7055 211.588 12.9988 212.644 13.585C213.7 14.1713 214.524 14.9872 215.114 16.0328C215.705 17.0783 216 18.2717 216 19.614V30.5291H212.241V20.8649C212.241 19.8982 212.083 19.0731 211.767 18.3897C211.451 17.7073 210.994 17.1902 210.398 16.8394C209.801 16.4889 209.086 16.3142 208.25 16.3142C207.427 16.3142 206.679 16.4923 206.004 16.8489C205.33 17.2053 204.796 17.7311 204.403 18.4261C204.009 19.1211 203.812 19.9463 203.812 20.9013V30.5288L200.053 30.5291ZM75.3668 13.1595H70.9638L66.7224 26.2505L62.4808 13.1595H58.0065L52.3331 30.5299H56.2345L60.2795 17.2576L64.5568 30.5299H68.7985L73.0221 17.3299L77.0491 30.5299H81.0404L75.3668 13.1595Z" fill="#2F1865"></path>
</g>
<path d="M32.5745 41.0563C22.2031 47.123 8.89369 43.5096 2.9056 33.002C-3.08248 22.4944 0.48385 9.0104 10.8553 2.94374C21.2268 -3.12293 34.5364 0.490199 40.5245 10.9978C46.5126 21.5054 42.9463 34.9896 32.5745 41.0563ZM11.7581 4.52804C2.24903 10.0903 -1.02079 22.4532 4.46939 32.0874C9.95957 41.7215 22.1624 45.0342 31.6717 39.472C41.1811 33.9098 44.4509 21.5468 38.9607 11.9127C33.4705 2.27855 21.2674 -1.03419 11.7581 4.52804Z" fill="#2F1865"></path>
<path d="M42.5721 3.49122C41.8272 2.89915 40.7491 3.03034 40.1652 3.78554C35.5197 9.78357 34.1148 16.1876 33.507 20.6346C33.1349 17.4332 32.6675 14.5552 30.232 14.5177C27.2907 14.4723 26.7378 18.9732 25.9017 25.7866C25.8022 26.598 25.6862 27.5324 25.5599 28.4666C25.3723 26.1878 25.0888 23.1063 24.7123 20.0354C23.3302 8.76072 21.9279 6.58381 19.8232 6.51149C17.037 6.4154 16.7751 10.2669 16.2048 18.7074C16.0383 21.1738 15.7942 24.7915 15.4299 27.1275C15.1777 26.3663 14.9354 25.5327 14.7497 24.8955C13.7049 21.3056 12.8026 18.2053 10.4186 17.959C9.82355 17.8978 9.25062 18.0831 8.80274 18.4835C7.8059 19.3755 7.77229 20.9152 7.7108 23.7103C7.60971 28.3125 7.44062 36.0149 2.47361 40.8195C1.7889 41.4821 1.76389 42.5815 2.41759 43.2752C3.0713 43.9689 4.15438 43.9924 4.84143 43.3319C10.4903 37.8674 10.9843 29.9129 11.1169 24.712C11.243 25.1293 11.3595 25.53 11.4606 25.8777C12.5105 29.4847 13.3396 32.3337 15.6858 32.3696C18.5958 32.4142 18.9944 28.2858 19.6252 18.9441C19.6726 18.2417 19.7253 17.4644 19.7836 16.6659C19.9566 18.5706 20.1773 20.7615 20.4451 22.9461C21.8276 34.2207 23.2298 36.3976 25.3348 36.4702C25.7965 36.4861 26.1925 36.3916 26.5356 36.191C28.1992 35.218 28.6252 31.7464 29.3042 26.215C29.4959 24.6508 29.7586 22.5111 30.0673 20.752C30.1051 21.0646 30.1387 21.362 30.1686 21.6242C30.5746 25.1961 30.9576 28.5698 33.574 28.8399C36.0163 29.093 36.3026 26.427 36.6072 23.6055C37.0587 19.4325 37.8138 12.4485 42.8626 5.92918C43.4473 5.17478 43.317 4.08276 42.5721 3.49069V3.49122Z" fill="url(#paint0_linear_1841_278800)"></path>
<path fill-rule="evenodd" clip-rule="evenodd" d="M110.694 29.3149C109.631 28.2028 109.101 26.5103 109.101 24.2381V16.6045H105.683V13.1593H109.101V7.90112H112.86V13.1593H119.428V16.6045H112.86V24.1652C112.86 25.2778 113.11 26.0966 113.611 26.6219C114.112 27.1477 114.769 27.4112 115.58 27.4112C116.129 27.4112 116.704 27.3021 117.307 27.0844C117.909 26.8671 118.485 26.5834 119.034 26.2323L120.52 29.2605C118.837 30.4087 117.084 30.9828 115.258 30.9828C113.277 30.9828 111.756 30.4267 110.694 29.3149H110.694ZM88.0451 29.8042C86.7382 29.0187 85.7062 27.9304 84.9488 26.5403C84.1906 25.1508 83.8126 23.585 83.8126 21.8439C83.8126 20.1028 84.1909 18.5383 84.9488 17.148C85.7065 15.758 86.7382 14.6702 88.0451 13.8841C89.3515 13.0986 90.7978 12.7055 92.3847 12.7055C93.5538 12.7055 94.5889 12.9296 95.4901 13.3762C96.3906 13.8239 97.1514 14.4524 97.7722 15.2623V13.159H101.513V30.5291H97.7722V28.444C97.1514 29.2417 96.394 29.865 95.499 30.3113C94.6043 30.7585 93.566 30.9826 92.3847 30.9826C90.7978 30.9826 89.3515 30.5893 88.0451 29.8042ZM95.5261 26.6858C96.3072 26.2022 96.9161 25.5373 97.3517 24.691C97.7868 23.8453 98.0049 22.8961 98.0049 21.8442C98.0049 20.7923 97.7868 19.8441 97.3517 18.9979C96.9161 18.1516 96.3072 17.4867 95.5261 17.0031C94.7439 16.52 93.8461 16.278 92.8323 16.278C91.7941 16.278 90.8816 16.5259 90.0938 17.0216C89.3064 17.5173 88.7038 18.188 88.2866 19.0338C87.8687 19.88 87.66 20.8171 87.66 21.8442C87.66 22.8713 87.8687 23.8089 88.2866 24.6551C88.704 25.5014 89.3067 26.1721 90.0938 26.6673C90.8816 27.163 91.7941 27.4109 92.8323 27.4109C93.8461 27.4109 94.7439 27.1694 95.5261 26.6858ZM124.251 26.5403C125.008 27.9304 126.041 29.0187 127.347 29.8042C128.653 30.5893 130.1 30.9826 131.687 30.9826C132.869 30.9826 133.906 30.7585 134.801 30.3113C135.697 29.865 136.454 29.2417 137.074 28.444V30.5291H140.815V13.159H137.074V15.2623C136.454 14.4524 135.693 13.8239 134.792 13.3762C133.891 12.9296 132.856 12.7055 131.687 12.7055C130.1 12.7055 128.653 13.0986 127.347 13.8841C126.041 14.6702 125.008 15.758 124.251 17.148C123.493 18.5383 123.115 20.1028 123.115 21.8439C123.115 23.585 123.493 25.1508 124.251 26.5403ZM136.654 24.691C136.218 25.5373 135.609 26.2022 134.828 26.6858C134.046 27.1694 133.149 27.4109 132.134 27.4109C131.096 27.4109 130.184 27.163 129.396 26.6673C128.609 26.1721 128.006 25.5014 127.589 24.6551C127.171 23.8089 126.962 22.8713 126.962 21.8442C126.962 20.8171 127.171 19.88 127.589 19.0338C128.006 18.188 128.608 17.5173 129.396 17.0216C130.184 16.5259 131.096 16.278 132.134 16.278C133.149 16.278 134.046 16.52 134.828 17.0031C135.609 17.4867 136.218 18.1516 136.654 18.9979C137.089 19.8441 137.307 20.7923 137.307 21.8442C137.307 22.8961 137.089 23.8453 136.654 24.691ZM154.81 30.5291H150.407L144.734 13.159H148.724L152.752 26.359L156.976 13.159H161.217L165.494 26.4313L169.539 13.159H173.441L167.767 30.5291H163.293L159.051 17.4384L154.81 30.5291ZM177.262 26.5403C178.019 27.9304 179.052 29.0187 180.358 29.8042C181.664 30.5893 183.111 30.9826 184.698 30.9826C185.879 30.9826 186.917 30.7585 187.812 30.3113C188.707 29.865 189.465 29.2417 190.085 28.444V30.5291H193.826V13.159H190.085V15.2623C189.465 14.4524 188.704 13.8239 187.803 13.3762C186.902 12.9296 185.867 12.7055 184.698 12.7055C183.111 12.7055 181.664 13.0986 180.358 13.8841C179.052 14.6702 178.019 15.7577 177.262 17.148C176.504 18.5383 176.125 20.1028 176.125 21.8439C176.125 23.585 176.504 25.1508 177.262 26.5403ZM189.665 24.691C189.229 25.5373 188.62 26.2022 187.839 26.6858C187.057 27.1694 186.159 27.4109 185.145 27.4109C184.107 27.4109 183.194 27.163 182.407 26.6673C181.619 26.1721 181.017 25.5014 180.599 24.6551C180.182 23.8089 179.973 22.8713 179.973 21.8442C179.973 20.8171 180.182 19.88 180.599 19.0338C181.017 18.188 181.619 17.5173 182.407 17.0216C183.194 16.5259 184.107 16.278 185.145 16.278C186.159 16.278 187.057 16.52 187.839 17.0031C188.62 17.4867 189.229 18.1516 189.665 18.9979C190.1 19.8441 190.318 20.7923 190.318 21.8442C190.318 22.8961 190.1 23.8453 189.665 24.691ZM200.053 30.5291V13.159H203.776V15.2802C204.408 14.3379 205.187 13.6729 206.112 13.286C207.036 12.899 208.011 12.7055 209.038 12.7055C210.386 12.7055 211.588 12.9988 212.644 13.585C213.7 14.1713 214.524 14.9872 215.114 16.0328C215.705 17.0783 216 18.2717 216 19.614V30.5291H212.241V20.8649C212.241 19.8982 212.083 19.0731 211.767 18.3897C211.451 17.7073 210.994 17.1902 210.398 16.8394C209.801 16.4889 209.086 16.3142 208.25 16.3142C207.427 16.3142 206.679 16.4923 206.004 16.8489C205.33 17.2053 204.796 17.7311 204.403 18.4261C204.009 19.1211 203.812 19.9463 203.812 20.9013V30.5288L200.053 30.5291ZM75.3668 13.1595H70.9638L66.7224 26.2505L62.4808 13.1595H58.0065L52.3331 30.5299H56.2345L60.2795 17.2576L64.5568 30.5299H68.7985L73.0221 17.3299L77.0491 30.5299H81.0404L75.3668 13.1595Z" fill="#2F1865"></path>
<g clip-path="url(#clip0_1841_2788)">
<path d="M32.5745 41.0563C22.2031 47.123 8.89369 43.5096 2.9056 33.002C-3.08248 22.4944 0.48385 9.0104 10.8553 2.94374C21.2268 -3.12293 34.5364 0.490199 40.5245 10.9978C46.5126 21.5054 42.9463 34.9896 32.5745 41.0563ZM11.7581 4.52804C2.24903 10.0903 -1.02079 22.4532 4.46939 32.0874C9.95957 41.7215 22.1624 45.0342 31.6717 39.472C41.1811 33.9098 44.4509 21.5468 38.9607 11.9127C33.4705 2.27855 21.2674 -1.03419 11.7581 4.52804Z" fill="#2F1865"></path>
<path d="M42.5721 3.49122C41.8272 2.89915 40.7491 3.03034 40.1652 3.78554C35.5197 9.78357 34.1148 16.1876 33.507 20.6346C33.1349 17.4332 32.6675 14.5552 30.232 14.5177C27.2907 14.4723 26.7378 18.9732 25.9017 25.7866C25.8022 26.598 25.6862 27.5324 25.5599 28.4666C25.3723 26.1878 25.0888 23.1063 24.7123 20.0354C23.3302 8.76072 21.9279 6.58381 19.8232 6.51149C17.037 6.4154 16.7751 10.2669 16.2048 18.7074C16.0383 21.1738 15.7942 24.7915 15.4299 27.1275C15.1777 26.3663 14.9354 25.5327 14.7497 24.8955C13.7049 21.3056 12.8026 18.2053 10.4186 17.959C9.82355 17.8978 9.25062 18.0831 8.80274 18.4835C7.8059 19.3755 7.77229 20.9152 7.7108 23.7103C7.60971 28.3125 7.44062 36.0149 2.47361 40.8195C1.7889 41.4821 1.76389 42.5815 2.41759 43.2752C3.0713 43.9689 4.15438 43.9924 4.84143 43.3319C10.4903 37.8674 10.9843 29.9129 11.1169 24.712C11.243 25.1293 11.3595 25.53 11.4606 25.8777C12.5105 29.4847 13.3396 32.3337 15.6858 32.3696C18.5958 32.4142 18.9944 28.2858 19.6252 18.9441C19.6726 18.2417 19.7253 17.4644 19.7836 16.6659C19.9566 18.5706 20.1773 20.7615 20.4451 22.9461C21.8276 34.2207 23.2298 36.3976 25.3348 36.4702C25.7965 36.4861 26.1925 36.3916 26.5356 36.191C28.1992 35.218 28.6252 31.7464 29.3042 26.215C29.4959 24.6508 29.7586 22.5111 30.0673 20.752C30.1051 21.0646 30.1387 21.362 30.1686 21.6242C30.5746 25.1961 30.9576 28.5698 33.574 28.8399C36.0163 29.093 36.3026 26.427 36.6072 23.6055C37.0587 19.4325 37.8138 12.4485 42.8626 5.92918C43.4473 5.17478 43.317 4.08276 42.5721 3.49069V3.49122Z" fill="url(#paint0_linear_1841_278800)"></path>
<path fill-rule="evenodd" clip-rule="evenodd" d="M110.694 29.3149C109.631 28.2028 109.101 26.5103 109.101 24.2381V16.6045H105.683V13.1593H109.101V7.90112H112.86V13.1593H119.428V16.6045H112.86V24.1652C112.86 25.2778 113.11 26.0966 113.611 26.6219C114.112 27.1477 114.769 27.4112 115.58 27.4112C116.129 27.4112 116.704 27.3021 117.307 27.0844C117.909 26.8671 118.485 26.5834 119.034 26.2323L120.52 29.2605C118.837 30.4087 117.084 30.9828 115.258 30.9828C113.277 30.9828 111.756 30.4267 110.694 29.3149H110.694ZM88.0451 29.8042C86.7382 29.0187 85.7062 27.9304 84.9488 26.5403C84.1906 25.1508 83.8126 23.585 83.8126 21.8439C83.8126 20.1028 84.1909 18.5383 84.9488 17.148C85.7065 15.758 86.7382 14.6702 88.0451 13.8841C89.3515 13.0986 90.7978 12.7055 92.3847 12.7055C93.5538 12.7055 94.5889 12.9296 95.4901 13.3762C96.3906 13.8239 97.1514 14.4524 97.7722 15.2623V13.159H101.513V30.5291H97.7722V28.444C97.1514 29.2417 96.394 29.865 95.499 30.3113C94.6043 30.7585 93.566 30.9826 92.3847 30.9826C90.7978 30.9826 89.3515 30.5893 88.0451 29.8042ZM95.5261 26.6858C96.3072 26.2022 96.9161 25.5373 97.3517 24.691C97.7868 23.8453 98.0049 22.8961 98.0049 21.8442C98.0049 20.7923 97.7868 19.8441 97.3517 18.9979C96.9161 18.1516 96.3072 17.4867 95.5261 17.0031C94.7439 16.52 93.8461 16.278 92.8323 16.278C91.7941 16.278 90.8816 16.5259 90.0938 17.0216C89.3064 17.5173 88.7038 18.188 88.2866 19.0338C87.8687 19.88 87.66 20.8171 87.66 21.8442C87.66 22.8713 87.8687 23.8089 88.2866 24.6551C88.704 25.5014 89.3067 26.1721 90.0938 26.6673C90.8816 27.163 91.7941 27.4109 92.8323 27.4109C93.8461 27.4109 94.7439 27.1694 95.5261 26.6858ZM124.251 26.5403C125.008 27.9304 126.041 29.0187 127.347 29.8042C128.653 30.5893 130.1 30.9826 131.687 30.9826C132.869 30.9826 133.906 30.7585 134.801 30.3113C135.697 29.865 136.454 29.2417 137.074 28.444V30.5291H140.815V13.159H137.074V15.2623C136.454 14.4524 135.693 13.8239 134.792 13.3762C133.891 12.9296 132.856 12.7055 131.687 12.7055C130.1 12.7055 128.653 13.0986 127.347 13.8841C126.041 14.6702 125.008 15.758 124.251 17.148C123.493 18.5383 123.115 20.1028 123.115 21.8439C123.115 23.585 123.493 25.1508 124.251 26.5403ZM136.654 24.691C136.218 25.5373 135.609 26.2022 134.828 26.6858C134.046 27.1694 133.149 27.4109 132.134 27.4109C131.096 27.4109 130.184 27.163 129.396 26.6673C128.609 26.1721 128.006 25.5014 127.589 24.6551C127.171 23.8089 126.962 22.8713 126.962 21.8442C126.962 20.8171 127.171 19.88 127.589 19.0338C128.006 18.188 128.608 17.5173 129.396 17.0216C130.184 16.5259 131.096 16.278 132.134 16.278C133.149 16.278 134.046 16.52 134.828 17.0031C135.609 17.4867 136.218 18.1516 136.654 18.9979C137.089 19.8441 137.307 20.7923 137.307 21.8442C137.307 22.8961 137.089 23.8453 136.654 24.691ZM154.81 30.5291H150.407L144.734 13.159H148.724L152.752 26.359L156.976 13.159H161.217L165.494 26.4313L169.539 13.159H173.441L167.767 30.5291H163.293L159.051 17.4384L154.81 30.5291ZM177.262 26.5403C178.019 27.9304 179.052 29.0187 180.358 29.8042C181.664 30.5893 183.111 30.9826 184.698 30.9826C185.879 30.9826 186.917 30.7585 187.812 30.3113C188.707 29.865 189.465 29.2417 190.085 28.444V30.5291H193.826V13.159H190.085V15.2623C189.465 14.4524 188.704 13.8239 187.803 13.3762C186.902 12.9296 185.867 12.7055 184.698 12.7055C183.111 12.7055 181.664 13.0986 180.358 13.8841C179.052 14.6702 178.019 15.7577 177.262 17.148C176.504 18.5383 176.125 20.1028 176.125 21.8439C176.125 23.585 176.504 25.1508 177.262 26.5403ZM189.665 24.691C189.229 25.5373 188.62 26.2022 187.839 26.6858C187.057 27.1694 186.159 27.4109 185.145 27.4109C184.107 27.4109 183.194 27.163 182.407 26.6673C181.619 26.1721 181.017 25.5014 180.599 24.6551C180.182 23.8089 179.973 22.8713 179.973 21.8442C179.973 20.8171 180.182 19.88 180.599 19.0338C181.017 18.188 181.619 17.5173 182.407 17.0216C183.194 16.5259 184.107 16.278 185.145 16.278C186.159 16.278 187.057 16.52 187.839 17.0031C188.62 17.4867 189.229 18.1516 189.665 18.9979C190.1 19.8441 190.318 20.7923 190.318 21.8442C190.318 22.8961 190.1 23.8453 189.665 24.691ZM200.053 30.5291V13.159H203.776V15.2802C204.408 14.3379 205.187 13.6729 206.112 13.286C207.036 12.899 208.011 12.7055 209.038 12.7055C210.386 12.7055 211.588 12.9988 212.644 13.585C213.7 14.1713 214.524 14.9872 215.114 16.0328C215.705 17.0783 216 18.2717 216 19.614V30.5291H212.241V20.8649C212.241 19.8982 212.083 19.0731 211.767 18.3897C211.451 17.7073 210.994 17.1902 210.398 16.8394C209.801 16.4889 209.086 16.3142 208.25 16.3142C207.427 16.3142 206.679 16.4923 206.004 16.8489C205.33 17.2053 204.796 17.7311 204.403 18.4261C204.009 19.1211 203.812 19.9463 203.812 20.9013V30.5288L200.053 30.5291ZM75.3668 13.1595H70.9638L66.7224 26.2505L62.4808 13.1595H58.0065L52.3331 30.5299H56.2345L60.2795 17.2576L64.5568 30.5299H68.7985L73.0221 17.3299L77.0491 30.5299H81.0404L75.3668 13.1595Z" fill="#2F1865"></path>
</g>
<defs>
<linearGradient id="paint0_linear_1841_278800" x1="-1.63735" y1="28.7653" x2="46.2617" y2="16.0969" gradientUnits="userSpaceOnUse">
<stop offset="0.103" stop-color="#2F1865"></stop>
<stop offset="0.186" stop-color="#341B7C"></stop>
<stop offset="0.36" stop-color="#4126B9"></stop>
<stop offset="0.541" stop-color="#5032FF"></stop>
<stop offset="0.857" stop-color="#C70FFF"></stop>
<stop offset="0.999" stop-color="#FF00FF"></stop>
</linearGradient>
<clipPath id="clip0_1841_2788">
<rect width="216" height="44" fill="white"></rect>
</clipPath>
</defs>
<linearGradient id="paint0_linear_1841_278800" x1="-1.63735" y1="28.7653" x2="46.2617" y2="16.0969" gradientUnits="userSpaceOnUse">
<stop offset="0.103" stop-color="#2F1865"></stop>
<stop offset="0.186" stop-color="#341B7C"></stop>
<stop offset="0.36" stop-color="#4126B9"></stop>
<stop offset="0.541" stop-color="#5032FF"></stop>
<stop offset="0.857" stop-color="#C70FFF"></stop>
<stop offset="0.999" stop-color="#FF00FF"></stop>
</linearGradient>
<clipPath id="clip0_1841_2788">
<rect width="216" height="44" fill="white"></rect>
</clipPath>
<rect width="216" height="44" fill="white"></rect>
<clipPath id="clip0_1841_2788">
<rect width="216" height="44" fill="white"></rect>
</clipPath>
<defs>
<linearGradient id="paint0_linear_1841_278800" x1="-1.63735" y1="28.7653" x2="46.2617" y2="16.0969" gradientUnits="userSpaceOnUse">
<stop offset="0.103" stop-color="#2F1865"></stop>
<stop offset="0.186" stop-color="#341B7C"></stop>
<stop offset="0.36" stop-color="#4126B9"></stop>
<stop offset="0.541" stop-color="#5032FF"></stop>
<stop offset="0.857" stop-color="#C70FFF"></stop>
<stop offset="0.999" stop-color="#FF00FF"></stop>
</linearGradient>
<clipPath id="clip0_1841_2788">
<rect width="216" height="44" fill="white"></rect>
</clipPath>
</defs>
<svg viewBox="0 0 216 44" fill="none" xmlns="http://www.w3.org/2000/svg">
<g clip-path="url(#clip0_1841_2788)">
<path d="M32.5745 41.0563C22.2031 47.123 8.89369 43.5096 2.9056 33.002C-3.08248 22.4944 0.48385 9.0104 10.8553 2.94374C21.2268 -3.12293 34.5364 0.490199 40.5245 10.9978C46.5126 21.5054 42.9463 34.9896 32.5745 41.0563ZM11.7581 4.52804C2.24903 10.0903 -1.02079 22.4532 4.46939 32.0874C9.95957 41.7215 22.1624 45.0342 31.6717 39.472C41.1811 33.9098 44.4509 21.5468 38.9607 11.9127C33.4705 2.27855 21.2674 -1.03419 11.7581 4.52804Z" fill="#2F1865"></path>
<path d="M42.5721 3.49122C41.8272 2.89915 40.7491 3.03034 40.1652 3.78554C35.5197 9.78357 34.1148 16.1876 33.507 20.6346C33.1349 17.4332 32.6675 14.5552 30.232 14.5177C27.2907 14.4723 26.7378 18.9732 25.9017 25.7866C25.8022 26.598 25.6862 27.5324 25.5599 28.4666C25.3723 26.1878 25.0888 23.1063 24.7123 20.0354C23.3302 8.76072 21.9279 6.58381 19.8232 6.51149C17.037 6.4154 16.7751 10.2669 16.2048 18.7074C16.0383 21.1738 15.7942 24.7915 15.4299 27.1275C15.1777 26.3663 14.9354 25.5327 14.7497 24.8955C13.7049 21.3056 12.8026 18.2053 10.4186 17.959C9.82355 17.8978 9.25062 18.0831 8.80274 18.4835C7.8059 19.3755 7.77229 20.9152 7.7108 23.7103C7.60971 28.3125 7.44062 36.0149 2.47361 40.8195C1.7889 41.4821 1.76389 42.5815 2.41759 43.2752C3.0713 43.9689 4.15438 43.9924 4.84143 43.3319C10.4903 37.8674 10.9843 29.9129 11.1169 24.712C11.243 25.1293 11.3595 25.53 11.4606 25.8777C12.5105 29.4847 13.3396 32.3337 15.6858 32.3696C18.5958 32.4142 18.9944 28.2858 19.6252 18.9441C19.6726 18.2417 19.7253 17.4644 19.7836 16.6659C19.9566 18.5706 20.1773 20.7615 20.4451 22.9461C21.8276 34.2207 23.2298 36.3976 25.3348 36.4702C25.7965 36.4861 26.1925 36.3916 26.5356 36.191C28.1992 35.218 28.6252 31.7464 29.3042 26.215C29.4959 24.6508 29.7586 22.5111 30.0673 20.752C30.1051 21.0646 30.1387 21.362 30.1686 21.6242C30.5746 25.1961 30.9576 28.5698 33.574 28.8399C36.0163 29.093 36.3026 26.427 36.6072 23.6055C37.0587 19.4325 37.8138 12.4485 42.8626 5.92918C43.4473 5.17478 43.317 4.08276 42.5721 3.49069V3.49122Z" fill="url(#paint0_linear_1841_278800)"></path>
<path fill-rule="evenodd" clip-rule="evenodd" d="M110.694 29.3149C109.631 28.2028 109.101 26.5103 109.101 24.2381V16.6045H105.683V13.1593H109.101V7.90112H112.86V13.1593H119.428V16.6045H112.86V24.1652C112.86 25.2778 113.11 26.0966 113.611 26.6219C114.112 27.1477 114.769 27.4112 115.58 27.4112C116.129 27.4112 116.704 27.3021 117.307 27.0844C117.909 26.8671 118.485 26.5834 119.034 26.2323L120.52 29.2605C118.837 30.4087 117.084 30.9828 115.258 30.9828C113.277 30.9828 111.756 30.4267 110.694 29.3149H110.694ZM88.0451 29.8042C86.7382 29.0187 85.7062 27.9304 84.9488 26.5403C84.1906 25.1508 83.8126 23.585 83.8126 21.8439C83.8126 20.1028 84.1909 18.5383 84.9488 17.148C85.7065 15.758 86.7382 14.6702 88.0451 13.8841C89.3515 13.0986 90.7978 12.7055 92.3847 12.7055C93.5538 12.7055 94.5889 12.9296 95.4901 13.3762C96.3906 13.8239 97.1514 14.4524 97.7722 15.2623V13.159H101.513V30.5291H97.7722V28.444C97.1514 29.2417 96.394 29.865 95.499 30.3113C94.6043 30.7585 93.566 30.9826 92.3847 30.9826C90.7978 30.9826 89.3515 30.5893 88.0451 29.8042ZM95.5261 26.6858C96.3072 26.2022 96.9161 25.5373 97.3517 24.691C97.7868 23.8453 98.0049 22.8961 98.0049 21.8442C98.0049 20.7923 97.7868 19.8441 97.3517 18.9979C96.9161 18.1516 96.3072 17.4867 95.5261 17.0031C94.7439 16.52 93.8461 16.278 92.8323 16.278C91.7941 16.278 90.8816 16.5259 90.0938 17.0216C89.3064 17.5173 88.7038 18.188 88.2866 19.0338C87.8687 19.88 87.66 20.8171 87.66 21.8442C87.66 22.8713 87.8687 23.8089 88.2866 24.6551C88.704 25.5014 89.3067 26.1721 90.0938 26.6673C90.8816 27.163 91.7941 27.4109 92.8323 27.4109C93.8461 27.4109 94.7439 27.1694 95.5261 26.6858ZM124.251 26.5403C125.008 27.9304 126.041 29.0187 127.347 29.8042C128.653 30.5893 130.1 30.9826 131.687 30.9826C132.869 30.9826 133.906 30.7585 134.801 30.3113C135.697 29.865 136.454 29.2417 137.074 28.444V30.5291H140.815V13.159H137.074V15.2623C136.454 14.4524 135.693 13.8239 134.792 13.3762C133.891 12.9296 132.856 12.7055 131.687 12.7055C130.1 12.7055 128.653 13.0986 127.347 13.8841C126.041 14.6702 125.008 15.758 124.251 17.148C123.493 18.5383 123.115 20.1028 123.115 21.8439C123.115 23.585 123.493 25.1508 124.251 26.5403ZM136.654 24.691C136.218 25.5373 135.609 26.2022 134.828 26.6858C134.046 27.1694 133.149 27.4109 132.134 27.4109C131.096 27.4109 130.184 27.163 129.396 26.6673C128.609 26.1721 128.006 25.5014 127.589 24.6551C127.171 23.8089 126.962 22.8713 126.962 21.8442C126.962 20.8171 127.171 19.88 127.589 19.0338C128.006 18.188 128.608 17.5173 129.396 17.0216C130.184 16.5259 131.096 16.278 132.134 16.278C133.149 16.278 134.046 16.52 134.828 17.0031C135.609 17.4867 136.218 18.1516 136.654 18.9979C137.089 19.8441 137.307 20.7923 137.307 21.8442C137.307 22.8961 137.089 23.8453 136.654 24.691ZM154.81 30.5291H150.407L144.734 13.159H148.724L152.752 26.359L156.976 13.159H161.217L165.494 26.4313L169.539 13.159H173.441L167.767 30.5291H163.293L159.051 17.4384L154.81 30.5291ZM177.262 26.5403C178.019 27.9304 179.052 29.0187 180.358 29.8042C181.664 30.5893 183.111 30.9826 184.698 30.9826C185.879 30.9826 186.917 30.7585 187.812 30.3113C188.707 29.865 189.465 29.2417 190.085 28.444V30.5291H193.826V13.159H190.085V15.2623C189.465 14.4524 188.704 13.8239 187.803 13.3762C186.902 12.9296 185.867 12.7055 184.698 12.7055C183.111 12.7055 181.664 13.0986 180.358 13.8841C179.052 14.6702 178.019 15.7577 177.262 17.148C176.504 18.5383 176.125 20.1028 176.125 21.8439C176.125 23.585 176.504 25.1508 177.262 26.5403ZM189.665 24.691C189.229 25.5373 188.62 26.2022 187.839 26.6858C187.057 27.1694 186.159 27.4109 185.145 27.4109C184.107 27.4109 183.194 27.163 182.407 26.6673C181.619 26.1721 181.017 25.5014 180.599 24.6551C180.182 23.8089 179.973 22.8713 179.973 21.8442C179.973 20.8171 180.182 19.88 180.599 19.0338C181.017 18.188 181.619 17.5173 182.407 17.0216C183.194 16.5259 184.107 16.278 185.145 16.278C186.159 16.278 187.057 16.52 187.839 17.0031C188.62 17.4867 189.229 18.1516 189.665 18.9979C190.1 19.8441 190.318 20.7923 190.318 21.8442C190.318 22.8961 190.1 23.8453 189.665 24.691ZM200.053 30.5291V13.159H203.776V15.2802C204.408 14.3379 205.187 13.6729 206.112 13.286C207.036 12.899 208.011 12.7055 209.038 12.7055C210.386 12.7055 211.588 12.9988 212.644 13.585C213.7 14.1713 214.524 14.9872 215.114 16.0328C215.705 17.0783 216 18.2717 216 19.614V30.5291H212.241V20.8649C212.241 19.8982 212.083 19.0731 211.767 18.3897C211.451 17.7073 210.994 17.1902 210.398 16.8394C209.801 16.4889 209.086 16.3142 208.25 16.3142C207.427 16.3142 206.679 16.4923 206.004 16.8489C205.33 17.2053 204.796 17.7311 204.403 18.4261C204.009 19.1211 203.812 19.9463 203.812 20.9013V30.5288L200.053 30.5291ZM75.3668 13.1595H70.9638L66.7224 26.2505L62.4808 13.1595H58.0065L52.3331 30.5299H56.2345L60.2795 17.2576L64.5568 30.5299H68.7985L73.0221 17.3299L77.0491 30.5299H81.0404L75.3668 13.1595Z" fill="#2F1865"></path>
</g>
<defs>
<linearGradient id="paint0_linear_1841_278800" x1="-1.63735" y1="28.7653" x2="46.2617" y2="16.0969" gradientUnits="userSpaceOnUse">
<stop offset="0.103" stop-color="#2F1865"></stop>
<stop offset="0.186" stop-color="#341B7C"></stop>
<stop offset="0.36" stop-color="#4126B9"></stop>
<stop offset="0.541" stop-color="#5032FF"></stop>
<stop offset="0.857" stop-color="#C70FFF"></stop>
<stop offset="0.999" stop-color="#FF00FF"></stop>
</linearGradient>
<clipPath id="clip0_1841_2788">
<rect width="216" height="44" fill="white"></rect>
</clipPath>
</defs>
</svg>
